# xmcd CD database file
#
# Track frame offsets:
#	150
#	6080
#	6952
#	7687
#	8465
#	13447
#	24610
#	31260
#	40785
#	44607
#	50305
#	60012
#	69130
#	74067
#	81012
#	92397
#	98427
#	103962
#	110625
#	116950
#	124587
#	130702
#	139292
#	144197
#	149340
#	154545
#	160372
#	167847
#	176630
#	184092
#	190482
#	198590
#	214592
#	222382
#	228467
#	236960
#	242107
#	248857
#	254175
#	260015
#	267532
#
# Disc length: 3658 seconds
#
# Revision: 5
# Processed by: cddbd v1.5.1PL0 Copyright (c) Steve Scherf et al.
# Submitted via: CDex 1.51
#
DISCID=4b0e4829
DTITLE=佐藤直紀 - プリキュア・サウンド・スクリュー・オリジナルサウンドトラック1
DYEAR=2004
DGENRE=Anime
TTITLE0=五條真由美 - Danzen!ふたりはプリキュア(Tv Size)
TTITLE1=サブタイトル(M1)
TTITLE2=アイキャッチ・なぎさ＆メップル(M2)
TTITLE3=アイキャッチ・ほのか＆ミップル(M3)
TTITLE4=プリキュア変身(M6)
TTITLE5=過酷な戦い(M75)
TTITLE6=忍び寄る影(M25)
TTITLE7=逆転勝利(M76)
TTITLE8=デュアルオーロラウェイブ(M89)
TTITLE9=急げ！(M73)
TTITLE10=なぎさのテーマ(M14)
TTITLE11=ほのかのテーマ(M15)
TTITLE12=なんでこーなるの!?(M79)
TTITLE13=思い出(M19)
TTITLE14=小杉保夫 - DANZEN!ふたりはプリキュア〜オルゴールver〜(M9)
TTITLE15=不思議な出来事(M39)
TTITLE16=退屈な一日(M29)
TTITLE17=メップルのテーマ(M16)
TTITLE18=ミップルのテーマ(M17)
TTITLE19=悲しい過去(M20)
TTITLE20=ありえなーい!!(M67)
TTITLE21=悪の巣窟(M21)
TTITLE22=楽しい帰り道(M28)
TTITLE23=素朴な疑問(M55)
TTITLE24=決意(M45)
TTITLE25=高まる緊張(M59)
TTITLE26=プリキュア登場(M88)
TTITLE27=光の園(M18)
TTITLE28=悪の美学(M22)
TTITLE29=爽やかな風(M31)
TTITLE30=ザケンナー召喚(M24)
TTITLE31=小杉保夫 - DANZEN!ふたりはプリキュア〜バトル・インストver〜(M7)
TTITLE32=ゲッチュウ！らぶらぶぅ!?〜オーケストラver〜(M13)
TTITLE33=陽の当たる場所(M27)
TTITLE34=ジャアクキングのテーマ(M26)
TTITLE35=やってらんない(M53)
TTITLE36=午後の校庭で(M32)
TTITLE37=恋心(M44)
TTITLE38=やったね！(M77)
TTITLE39=平穏な日々(M78)
TTITLE40=五條真由美 - ゲッチュウ！らぶらぶぅ?!(Tv Size)
EXTD=YEAR: 2004
EXTT0=
EXTT1=
EXTT2=
EXTT3=
EXTT4=
EXTT5=
EXTT6=
EXTT7=
EXTT8=
EXTT9=
EXTT10=
EXTT11=
EXTT12=
EXTT13=
EXTT14=
EXTT15=
EXTT16=
EXTT17=
EXTT18=
EXTT19=
EXTT20=
EXTT21=
EXTT22=
EXTT23=
EXTT24=
EXTT25=
EXTT26=
EXTT27=
EXTT28=
EXTT29=
EXTT30=
EXTT31=
EXTT32=
EXTT33=
EXTT34=
EXTT35=
EXTT36=
EXTT37=
EXTT38=
EXTT39=
EXTT40=
PLAYORDER=
